<?xml version="1.0" encoding="UTF-8" standalone="no"?>
<!-- Created with Inkscape (http://www.inkscape.org/) -->

<svg
   width="96.97348mm"
   height="189.08771mm"
   viewBox="0 0 96.973481 189.08771"
   version="1.1"
   id="svg1"
   xml:space="preserve"
   inkscape:version="1.3.2 (091e20e, 2023-11-25)"
   sodipodi:docname="region-tipo-3.svg"
   inkscape:export-filename="region-tipo-3.png"
   inkscape:export-xdpi="100"
   inkscape:export-ydpi="100"
   xmlns:inkscape="http://www.inkscape.org/namespaces/inkscape"
   xmlns:sodipodi="http://sodipodi.sourceforge.net/DTD/sodipodi-0.dtd"
   xmlns="http://www.w3.org/2000/svg"
   xmlns:svg="http://www.w3.org/2000/svg"><sodipodi:namedview
     id="namedview1"
     pagecolor="#ffffff"
     bordercolor="#000000"
     borderopacity="0.25"
     inkscape:showpageshadow="2"
     inkscape:pageopacity="0.0"
     inkscape:pagecheckerboard="0"
     inkscape:deskcolor="#d1d1d1"
     inkscape:document-units="mm"
     showguides="true"
     inkscape:zoom="14.902971"
     inkscape:cx="209.52198"
     inkscape:cy="333.79251"
     inkscape:window-width="1512"
     inkscape:window-height="922"
     inkscape:window-x="0"
     inkscape:window-y="32"
     inkscape:window-maximized="0"
     inkscape:current-layer="layer1" /><defs
     id="defs1"><marker
       style="overflow:visible"
       id="marker5"
       refX="0"
       refY="0"
       orient="auto-start-reverse"
       inkscape:stockid="Dart arrow"
       markerWidth="1"
       markerHeight="1"
       viewBox="0 0 1 1"
       inkscape:isstock="true"
       inkscape:collect="always"
       preserveAspectRatio="xMidYMid"><path
         style="fill:context-stroke;fill-rule:evenodd;stroke:none"
         d="M 0,0 5,-5 -12.5,0 5,5 Z"
         transform="scale(-0.5)"
         id="path5" /></marker><linearGradient
       id="swatch3"
       inkscape:swatch="solid"><stop
         style="stop-color:#000000;stop-opacity:1;"
         offset="0"
         id="stop3" /></linearGradient><marker
       style="overflow:visible"
       id="marker5-9"
       refX="0"
       refY="0"
       orient="auto-start-reverse"
       inkscape:stockid="Dart arrow"
       markerWidth="1"
       markerHeight="1"
       viewBox="0 0 1 1"
       inkscape:isstock="true"
       inkscape:collect="always"
       preserveAspectRatio="xMidYMid"><path
         style="fill:context-stroke;fill-rule:evenodd;stroke:none"
         d="M 0,0 5,-5 -12.5,0 5,5 Z"
         transform="scale(-0.5)"
         id="path5-1" /></marker></defs><g
     inkscape:label="Ebene 1"
     inkscape:groupmode="layer"
     id="layer1"
     transform="translate(-47.497269,-24.958526)"><path
       style="fill:#000000"
       d="m 73.250045,201.82646 c 0,-10.87361 0.03083,-12.26381 0.279893,-12.61939 0.194124,-0.27715 0.225154,-0.46555 0.101263,-0.61483 -0.09825,-0.11838 -0.235442,-1.18654 -0.30488,-2.37368 l -0.126252,-2.15844 h -12.8514 c -8.450008,0 -12.8514,-0.0604 -12.8514,-0.17638 0,-0.11599 4.409722,-0.17639 12.876388,-0.17639 H 73.250045 V 157.5136 c 0,-14.40657 -0.04526,-26.19376 -0.100571,-26.19376 -0.05531,0 -1.226501,1.05172 -2.602637,2.33716 -2.52637,2.35985 -6.153388,5.51939 -8.58568,7.47907 -3.483091,2.80631 -10.533033,7.78508 -13.80243,9.74747 l -0.661458,0.39702 v -0.45755 c 0,-0.36476 0.205678,-0.58814 1.014236,-1.1015 8.12365,-5.15786 14.690504,-10.27345 22.160762,-17.26325 l 2.577778,-2.41199 V 103.43097 76.815674 H 71.521434 58.380463 47.497269 v -0.440972 -0.440973 h 10.643214 10.643214 c 1.007169,-0.0029 1.490276,-0.0074 3.231626,-5e-6 h 1.234722 V 65.791368 c 0,-10.010869 0.0046,-10.142362 0.351333,-10.142362 0.34623,0 0.351995,0.146676 0.396875,10.098264 l 0.04554,10.098265 18.300346,0.04492 18.300351,0.04492 V 65.792188 c 0,-10.02559 0.004,-10.143182 0.35278,-10.143182 0.34829,0 0.35277,0.117592 0.35277,9.260417 0,5.09323 0.0595,9.25826 0.13229,9.255623 0.22845,-0.0083 4.41939,-9.001947 7.10766,-15.252845 1.21994,-2.836677 1.41319,-3.180828 1.81358,-3.229688 0.43818,-0.05347 0.4155,0.02099 -1.02091,3.351389 -2.05455,4.763583 -3.63385,8.242819 -5.8076,12.794252 -1.02973,2.156065 -1.87224,3.961847 -1.87224,4.012847 0,0.051 5.23875,0.09273 11.64167,0.09273 11.52407,0 11.64166,0.0036 11.64166,0.352778 0,0.399092 1.12722,0.373537 -15.56632,0.352905 l -8.06979,-0.01 v 53.538956 53.53896 h 11.81806 c 7.76111,0 11.81805,0.0606 11.81805,0.17639 0,0.11583 -4.05694,0.17638 -11.81805,0.17638 h -11.81806 c 0.0806,34.22155 -0.70555,34.22159 -0.70555,2e-5 H 92.300044 73.955601 v 14.99306 c 0,14.87547 -0.0028,14.99306 -0.352778,14.99306 -0.349383,0 -0.352778,-0.11759 -0.352778,-12.21978 z m 37.388835,-70.90349 c -0.005,-47.140373 -0.0341,-52.746658 -0.27227,-52.431602 -0.14666,0.194028 -0.9372,1.644118 -1.75676,3.222423 C 99.317252,99.609476 87.696574,116.23894 76.231977,128.0473 l -2.276376,2.34464 v 26.6577 26.65771 h 18.344443 18.344446 z m -33.730322,-4.7625 c 4.682767,-5.06224 8.417636,-9.53841 12.326077,-14.77257 2.017886,-2.70234 5.523598,-7.71568 5.673864,-8.11389 0.05491,-0.14552 0.154917,-0.30427 0.222232,-0.35278 0.193305,-0.13929 2.638795,-3.906805 4.293522,-6.614583 3.277927,-5.363968 6.164707,-10.489411 9.611797,-17.065626 l 1.2713,-2.425347 H 92.132343 73.957335 l 3.5e-5,26.105556 c 2e-5,14.35806 0.06747,26.10556 0.149883,26.10556 0.08242,0 1.343004,-1.28985 2.801305,-2.86632 z M 69.817189,75.93373 c -2.370723,-4.366108 55.155761,101.57913 0,0 z"
       id="path1"
       sodipodi:nodetypes="sssscssscssssscscscccsscccccscssscccsssssssssssscccsssccccssssssscccccssssssscccsssss" /><path
       style="fill:#000000;stroke-width:0.264583"
       d="m 73.594094,184.17418 c 0,1.79498 0,3.58995 0,5.38493 0,0.46954 0.102465,1.30663 -0.09447,1.70051 -0.02066,0.0413 0.04724,0.58556 0.04724,0.70854"
       id="path2" /><rect
       style="fill:#000000;fill-opacity:1;stroke:#000000;stroke-width:0.264583;stroke-opacity:0.988701"
       id="rect3"
       width="0.33065382"
       height="11.667356"
       x="73.405151"
       y="181.95407" /><path
       style="fill:#4eca4e;fill-opacity:0.370057;stroke:#000000;stroke-width:0.974;stroke-dasharray:none;stroke-opacity:0.988701;marker-start:url(#marker5)"
       d="M 73.594091,31.046026 V 214.04624"
       id="path4" /><path
       style="fill:#4eca4e;fill-opacity:0.370057;stroke:#000000;stroke-width:0.902494;stroke-dasharray:none;stroke-opacity:0.988701;marker-start:url(#marker5-9)"
       d="m 138.83016,183.66932 -91.123163,0.038"
       id="path4-2" /><path
       style="fill:#008000;fill-opacity:0.576991;stroke:none;stroke-width:4.55821;stroke-dasharray:none;stroke-opacity:0.988701"
       d="m 280.51375,388.49137 -0.057,-97.50979 h 67.59107 67.59107 l -8.6356,16.40641 c -34.65955,65.84818 -76.01724,125.55469 -116.43193,168.0883 l -10.00054,10.52486 z"
       id="path6"
       transform="scale(0.26458333)" /><g
       inkscape:label=""
       transform="translate(83.2276,113.68)"
       id="g7"><g
   fill="#000000"
   fill-opacity="1"
   id="g2"
   transform="matrix(0.352778,0,0,0.352778,-0.796793,-0.701146)">
    <g
   id="use1"
   transform="translate(1.993,8.8000002)">
      
    </g>
  </g>
</g><g
       inkscape:label=""
       transform="translate(133.10189,186.20554)"
       id="g10"><g
   fill="#000000"
   fill-opacity="1"
   id="g9"
   transform="matrix(0.352778,0,0,0.352778,-0.846402,-0.64942)">
    <g
   id="g8"
   transform="translate(1.993,8.1689997)">
      <path
   d="m 6.796875,-5.859375 c -0.453125,0.09375 -0.625,0.4375 -0.625,0.703125 0,0.34375 0.265625,0.46875 0.46875,0.46875 0.4375,0 0.734375,-0.375 0.734375,-0.765625 0,-0.59375 -0.6875,-0.875 -1.296875,-0.875 -0.875,0 -1.359375,0.859375 -1.484375,1.140625 C 4.265625,-6.265625 3.375,-6.328125 3.109375,-6.328125 1.65625,-6.328125 0.875,-4.453125 0.875,-4.125 0.875,-4.078125 0.9375,-4 1.03125,-4 1.140625,-4 1.171875,-4.09375 1.203125,-4.140625 1.6875,-5.734375 2.65625,-6.03125 3.0625,-6.03125 c 0.65625,0 0.78125,0.59375 0.78125,0.9375 0,0.3125 -0.078125,0.640625 -0.265625,1.328125 l -0.484375,1.96875 c -0.203125,0.859375 -0.625,1.65625 -1.390625,1.65625 -0.0625,0 -0.421875,0 -0.734375,-0.1875 0.515625,-0.109375 0.640625,-0.53125 0.640625,-0.703125 0,-0.28125 -0.21875,-0.453125 -0.484375,-0.453125 -0.34375,0 -0.71875,0.296875 -0.71875,0.75 0,0.609375 0.671875,0.875 1.28125,0.875 0.6875,0 1.1875,-0.546875 1.484375,-1.125 0.234375,0.84375 0.9375,1.125 1.46875,1.125 1.46875,0 2.25,-1.875 2.25,-2.1875 0,-0.078125 -0.0625,-0.140625 -0.15625,-0.140625 -0.125,0 -0.140625,0.078125 -0.171875,0.1875 -0.390625,1.265625 -1.234375,1.859375 -1.875,1.859375 -0.5,0 -0.765625,-0.375 -0.765625,-0.96875 0,-0.3125 0.046875,-0.546875 0.28125,-1.484375 l 0.5,-1.953125 C 4.921875,-5.40625 5.40625,-6.03125 6.0625,-6.03125 c 0.03125,0 0.4375,0 0.734375,0.171875 z m 0,0"
   id="path7" />
    </g>
  </g>
</g><g
       inkscape:label=""
       transform="translate(68.847198,34.979429)"
       id="g13"><g
   fill="#000000"
   fill-opacity="1"
   id="g12"
   transform="matrix(0.352778,0,0,0.352778,-0.84089,-0.64942)">
    <g
   id="g11"
   transform="translate(1.993,8.1689997)">
      <path
   d="m 3.765625,1.609375 c -0.375,0.546875 -0.9375,1.03125 -1.640625,1.03125 -0.171875,0 -0.859375,-0.03125 -1.078125,-0.6875 C 1.09375,1.96875 1.15625,1.96875 1.1875,1.96875 c 0.4375,0 0.71875,-0.375 0.71875,-0.703125 C 1.90625,0.9375 1.640625,0.8125 1.421875,0.8125 1.1875,0.8125 0.6875,0.984375 0.6875,1.6875 c 0,0.734375 0.625,1.234375 1.4375,1.234375 1.4375,0 2.875,-1.3125 3.28125,-2.90625 l 1.40625,-5.59375 c 0.015625,-0.078125 0.046875,-0.15625 0.046875,-0.25 0,-0.203125 -0.171875,-0.359375 -0.390625,-0.359375 -0.125,0 -0.4375,0.0625 -0.546875,0.5 l -1.0625,4.203125 c -0.0625,0.265625 -0.0625,0.296875 -0.1875,0.453125 -0.28125,0.40625 -0.75,0.890625 -1.4375,0.890625 -0.8125,0 -0.875,-0.796875 -0.875,-1.171875 0,-0.828125 0.375,-1.921875 0.765625,-2.96875 0.15625,-0.40625 0.25,-0.609375 0.25,-0.890625 0,-0.609375 -0.4375,-1.15625 -1.140625,-1.15625 -1.3125,0 -1.84375,2.078125 -1.84375,2.203125 0,0.046875 0.046875,0.125 0.15625,0.125 C 0.671875,-4 0.6875,-4.0625 0.75,-4.265625 1.09375,-5.46875 1.640625,-6.03125 2.1875,-6.03125 c 0.140625,0 0.375,0 0.375,0.46875 0,0.375 -0.15625,0.78125 -0.375,1.328125 -0.703125,1.875 -0.703125,2.359375 -0.703125,2.703125 0,1.359375 0.984375,1.671875 1.703125,1.671875 0.40625,0 0.921875,-0.125 1.4375,-0.65625 L 4.640625,-0.5 c -0.21875,0.84375 -0.359375,1.40625 -0.875,2.109375 z m 0,0"
   id="path10" />
    </g>
  </g>
</g><g
       inkscape:label=""
       transform="translate(87.771941,116.34543)"
       id="g17"><g
   fill="#000000"
   fill-opacity="1"
   id="g6"
   transform="matrix(0.352778,0,0,0.352778,-0.846402,-0.706217)">
    <g
   id="use5"
   transform="translate(1.993,11.955)">
      <path
   d="m 6.796875,-5.859375 c -0.453125,0.09375 -0.625,0.4375 -0.625,0.703125 0,0.34375 0.265625,0.46875 0.46875,0.46875 0.4375,0 0.734375,-0.375 0.734375,-0.765625 0,-0.59375 -0.6875,-0.875 -1.296875,-0.875 -0.875,0 -1.359375,0.859375 -1.484375,1.140625 C 4.265625,-6.265625 3.375,-6.328125 3.109375,-6.328125 1.65625,-6.328125 0.875,-4.453125 0.875,-4.125 0.875,-4.078125 0.9375,-4 1.03125,-4 1.140625,-4 1.171875,-4.09375 1.203125,-4.140625 1.6875,-5.734375 2.65625,-6.03125 3.0625,-6.03125 c 0.65625,0 0.78125,0.59375 0.78125,0.9375 0,0.3125 -0.078125,0.640625 -0.265625,1.328125 l -0.484375,1.96875 c -0.203125,0.859375 -0.625,1.65625 -1.390625,1.65625 -0.0625,0 -0.421875,0 -0.734375,-0.1875 0.515625,-0.109375 0.640625,-0.53125 0.640625,-0.703125 0,-0.28125 -0.21875,-0.453125 -0.484375,-0.453125 -0.34375,0 -0.71875,0.296875 -0.71875,0.75 0,0.609375 0.671875,0.875 1.28125,0.875 0.6875,0 1.1875,-0.546875 1.484375,-1.125 0.234375,0.84375 0.9375,1.125 1.46875,1.125 1.46875,0 2.25,-1.875 2.25,-2.1875 0,-0.078125 -0.0625,-0.140625 -0.15625,-0.140625 -0.125,0 -0.140625,0.078125 -0.171875,0.1875 -0.390625,1.265625 -1.234375,1.859375 -1.875,1.859375 -0.5,0 -0.765625,-0.375 -0.765625,-0.96875 0,-0.3125 0.046875,-0.546875 0.28125,-1.484375 l 0.5,-1.953125 C 4.921875,-5.40625 5.40625,-6.03125 6.0625,-6.03125 c 0.03125,0 0.4375,0 0.734375,0.171875 z m 0,0"
   id="path9" />
    </g>
  </g>
  <g
   fill="#000000"
   fill-opacity="1"
   id="g14"
   transform="matrix(0.352778,0,0,0.352778,-0.846402,-0.706217)">
    <g
   id="use6"
   transform="translate(13.96,11.955)">
      <path
   d="m 9.6875,-4.640625 c 0.203125,0 0.453125,0 0.453125,-0.265625 0,-0.265625 -0.25,-0.265625 -0.453125,-0.265625 H 1.234375 c -0.203125,0 -0.453125,0 -0.453125,0.25 0,0.28125 0.234375,0.28125 0.453125,0.28125 z m 0,2.65625 c 0.203125,0 0.453125,0 0.453125,-0.25 0,-0.28125 -0.25,-0.28125 -0.453125,-0.28125 H 1.234375 c -0.203125,0 -0.453125,0 -0.453125,0.265625 0,0.265625 0.234375,0.265625 0.453125,0.265625 z m 0,0"
   id="path13" />
    </g>
  </g>
  <g
   fill="#000000"
   fill-opacity="1"
   id="g15"
   transform="matrix(0.352778,0,0,0.352778,-0.846402,-0.706217)">
    <g
   id="use7"
   transform="translate(28.87431,11.955)">
      <path
   d="m 2.46875,-9.953125 -2,0.15625 V -9.375 c 0.984375,0 1.09375,0.09375 1.09375,0.796875 V -1.0625 c 0,0.640625 -0.15625,0.640625 -1.09375,0.640625 V 0 c 0.40625,-0.03125 1.109375,-0.03125 1.546875,-0.03125 0.421875,0 1.140625,0 1.546875,0.03125 v -0.421875 c -0.921875,0 -1.09375,0 -1.09375,-0.640625 z m 0,0"
   id="path11" />
    </g>
    <g
   id="use8"
   transform="translate(32.776478,11.955)">
      <path
   d="m 6.390625,-3.484375 c 0,-1.328125 0,-1.734375 -0.34375,-2.203125 -0.40625,-0.546875 -1.078125,-0.640625 -1.578125,-0.640625 -1.390625,0 -1.9375,1.1875 -2.046875,1.484375 H 2.40625 v -1.484375 l -1.953125,0.15625 V -5.75 c 0.984375,0 1.09375,0.09375 1.09375,0.796875 V -1.0625 c 0,0.640625 -0.15625,0.640625 -1.09375,0.640625 V 0 c 0.375,-0.03125 1.15625,-0.03125 1.5625,-0.03125 0.40625,0 1.1875,0 1.5625,0.03125 v -0.421875 c -0.921875,0 -1.09375,0 -1.09375,-0.640625 v -2.671875 c 0,-1.5 0.984375,-2.296875 1.875,-2.296875 0.890625,0 1.09375,0.71875 1.09375,1.59375 v 3.375 c 0,0.640625 -0.15625,0.640625 -1.09375,0.640625 V 0 c 0.375,-0.03125 1.15625,-0.03125 1.546875,-0.03125 0.421875,0 1.1875,0 1.5625,0.03125 v -0.421875 c -0.71875,0 -1.078125,0 -1.078125,-0.421875 z m 0,0"
   id="path12" />
    </g>
  </g>
  <g
   fill="#000000"
   fill-opacity="1"
   id="g16"
   transform="matrix(0.352778,0,0,0.352778,-0.846402,-0.706217)">
    <g
   id="use9"
   transform="translate(42.967999,11.955)">
      <path
   d="m 3.765625,1.609375 c -0.375,0.546875 -0.9375,1.03125 -1.640625,1.03125 -0.171875,0 -0.859375,-0.03125 -1.078125,-0.6875 C 1.09375,1.96875 1.15625,1.96875 1.1875,1.96875 c 0.4375,0 0.71875,-0.375 0.71875,-0.703125 C 1.90625,0.9375 1.640625,0.8125 1.421875,0.8125 1.1875,0.8125 0.6875,0.984375 0.6875,1.6875 c 0,0.734375 0.625,1.234375 1.4375,1.234375 1.4375,0 2.875,-1.3125 3.28125,-2.90625 l 1.40625,-5.59375 c 0.015625,-0.078125 0.046875,-0.15625 0.046875,-0.25 0,-0.203125 -0.171875,-0.359375 -0.390625,-0.359375 -0.125,0 -0.4375,0.0625 -0.546875,0.5 l -1.0625,4.203125 c -0.0625,0.265625 -0.0625,0.296875 -0.1875,0.453125 -0.28125,0.40625 -0.75,0.890625 -1.4375,0.890625 -0.8125,0 -0.875,-0.796875 -0.875,-1.171875 0,-0.828125 0.375,-1.921875 0.765625,-2.96875 0.15625,-0.40625 0.25,-0.609375 0.25,-0.890625 0,-0.609375 -0.4375,-1.15625 -1.140625,-1.15625 -1.3125,0 -1.84375,2.078125 -1.84375,2.203125 0,0.046875 0.046875,0.125 0.15625,0.125 C 0.671875,-4 0.6875,-4.0625 0.75,-4.265625 1.09375,-5.46875 1.640625,-6.03125 2.1875,-6.03125 c 0.140625,0 0.375,0 0.375,0.46875 0,0.375 -0.15625,0.78125 -0.375,1.328125 -0.703125,1.875 -0.703125,2.359375 -0.703125,2.703125 0,1.359375 0.984375,1.671875 1.703125,1.671875 0.40625,0 0.921875,-0.125 1.4375,-0.65625 L 4.640625,-0.5 c -0.21875,0.84375 -0.359375,1.40625 -0.875,2.109375 z m 0,0"
   id="path15" />
    </g>
  </g>
</g><g
       inkscape:label=""
       transform="translate(93.207361,109.55701)"
       id="g24"><g
   fill="#000000"
   fill-opacity="1"
   id="g5"
   transform="matrix(0.352778,0,0,0.352778,-0.84089,-0.656828)">
    <g
   id="use4"
   transform="translate(1.993,11.896)">
      <path
   d="m 3.765625,1.609375 c -0.375,0.546875 -0.9375,1.03125 -1.640625,1.03125 -0.171875,0 -0.859375,-0.03125 -1.078125,-0.6875 C 1.09375,1.96875 1.15625,1.96875 1.1875,1.96875 c 0.4375,0 0.71875,-0.375 0.71875,-0.703125 C 1.90625,0.9375 1.640625,0.8125 1.421875,0.8125 1.1875,0.8125 0.6875,0.984375 0.6875,1.6875 c 0,0.734375 0.625,1.234375 1.4375,1.234375 1.4375,0 2.875,-1.3125 3.28125,-2.90625 l 1.40625,-5.59375 c 0.015625,-0.078125 0.046875,-0.15625 0.046875,-0.25 0,-0.203125 -0.171875,-0.359375 -0.390625,-0.359375 -0.125,0 -0.4375,0.0625 -0.546875,0.5 l -1.0625,4.203125 c -0.0625,0.265625 -0.0625,0.296875 -0.1875,0.453125 -0.28125,0.40625 -0.75,0.890625 -1.4375,0.890625 -0.8125,0 -0.875,-0.796875 -0.875,-1.171875 0,-0.828125 0.375,-1.921875 0.765625,-2.96875 0.15625,-0.40625 0.25,-0.609375 0.25,-0.890625 0,-0.609375 -0.4375,-1.15625 -1.140625,-1.15625 -1.3125,0 -1.84375,2.078125 -1.84375,2.203125 0,0.046875 0.046875,0.125 0.15625,0.125 C 0.671875,-4 0.6875,-4.0625 0.75,-4.265625 1.09375,-5.46875 1.640625,-6.03125 2.1875,-6.03125 c 0.140625,0 0.375,0 0.375,0.46875 0,0.375 -0.15625,0.78125 -0.375,1.328125 -0.703125,1.875 -0.703125,2.359375 -0.703125,2.703125 0,1.359375 0.984375,1.671875 1.703125,1.671875 0.40625,0 0.921875,-0.125 1.4375,-0.65625 L 4.640625,-0.5 c -0.21875,0.84375 -0.359375,1.40625 -0.875,2.109375 z m 0,0"
   id="path8" />
    </g>
  </g>
  <g
   fill="#000000"
   fill-opacity="1"
   id="g19"
   transform="matrix(0.352778,0,0,0.352778,-0.84089,-0.656828)">
    <g
   id="g18"
   transform="translate(13.341,11.896)">
      <path
   d="m 9.6875,-4.640625 c 0.203125,0 0.453125,0 0.453125,-0.265625 0,-0.265625 -0.25,-0.265625 -0.453125,-0.265625 H 1.234375 c -0.203125,0 -0.453125,0 -0.453125,0.25 0,0.28125 0.234375,0.28125 0.453125,0.28125 z m 0,2.65625 c 0.203125,0 0.453125,0 0.453125,-0.25 0,-0.28125 -0.25,-0.28125 -0.453125,-0.28125 H 1.234375 c -0.203125,0 -0.453125,0 -0.453125,0.265625 0,0.265625 0.234375,0.265625 0.453125,0.265625 z m 0,0"
   id="path17" />
    </g>
  </g>
  <g
   fill="#000000"
   fill-opacity="1"
   id="g21"
   transform="matrix(0.352778,0,0,0.352778,-0.84089,-0.656828)">
    <g
   id="g20"
   transform="translate(28.25531,11.896)">
      <path
   d="m 5.5,-3.328125 c 0.3125,0 0.34375,0 0.34375,-0.265625 0,-1.453125 -0.78125,-2.796875 -2.515625,-2.796875 -1.640625,0 -2.890625,1.46875 -2.890625,3.25 0,1.890625 1.453125,3.28125 3.046875,3.28125 1.703125,0 2.359375,-1.546875 2.359375,-1.84375 0,-0.09375 -0.078125,-0.140625 -0.15625,-0.140625 -0.125,0 -0.15625,0.0625 -0.171875,0.140625 -0.375,1.203125 -1.34375,1.53125 -1.9375,1.53125 -0.609375,0 -2.0625,-0.40625 -2.0625,-2.890625 V -3.328125 Z M 1.53125,-3.59375 c 0.125,-2.265625 1.375,-2.515625 1.78125,-2.515625 1.53125,0 1.625,2.015625 1.640625,2.515625 z m 0,0"
   id="path19" />
    </g>
  </g>
  <g
   fill="#000000"
   fill-opacity="1"
   id="g23"
   transform="matrix(0.352778,0,0,0.352778,-0.84089,-0.656828)">
    <g
   id="g22"
   transform="translate(34.494999,6.6900001)">
      <path
   d="m 3.640625,-3.296875 c 0.0625,-0.28125 0.3125,-1.28125 1.078125,-1.28125 0.0625,0 0.3125,0 0.546875,0.140625 C 4.96875,-4.390625 4.75,-4.109375 4.75,-3.84375 c 0,0.171875 0.109375,0.375 0.40625,0.375 0.25,0 0.59375,-0.203125 0.59375,-0.625 0,-0.578125 -0.640625,-0.734375 -1.015625,-0.734375 -0.640625,0 -1.015625,0.578125 -1.140625,0.84375 -0.28125,-0.734375 -0.875,-0.84375 -1.1875,-0.84375 -1.125,0 -1.75,1.421875 -1.75,1.6875 0,0.109375 0.109375,0.109375 0.125,0.109375 0.09375,0 0.125,-0.015625 0.140625,-0.125 0.375,-1.15625 1.09375,-1.421875 1.46875,-1.421875 0.203125,0 0.59375,0.09375 0.59375,0.734375 0,0.328125 -0.1875,1.0625 -0.59375,2.59375 -0.171875,0.671875 -0.5625,1.125 -1.03125,1.125 -0.078125,0 -0.328125,0 -0.546875,-0.140625 0.265625,-0.046875 0.5,-0.28125 0.5,-0.578125 0,-0.296875 -0.234375,-0.390625 -0.390625,-0.390625 -0.328125,0 -0.609375,0.28125 -0.609375,0.640625 0,0.5 0.546875,0.71875 1.03125,0.71875 0.71875,0 1.109375,-0.765625 1.140625,-0.828125 C 2.625,-0.3125 3.015625,0.125 3.671875,0.125 c 1.109375,0 1.734375,-1.40625 1.734375,-1.6875 0,-0.109375 -0.09375,-0.109375 -0.125,-0.109375 -0.09375,0 -0.125,0.046875 -0.140625,0.125 C 4.78125,-0.375 4.03125,-0.125 3.6875,-0.125 c -0.421875,0 -0.59375,-0.34375 -0.59375,-0.71875 0,-0.234375 0.0625,-0.46875 0.171875,-0.953125 z m 0,0"
   id="path21" />
    </g>
  </g>
</g><g
       inkscape:label=""
       transform="translate(69.183442,127.87124)"
       id="g27"><g
   fill="#000000"
   fill-opacity="1"
   id="g26"
   transform="matrix(0.352778,0,0,0.352778,-1.16611,-0.601751)">
    <g
   id="g25"
   transform="translate(1.993,11.237)">
      <path
   d="m 4.125,-9.1875 c 0,-0.34375 0,-0.34375 -0.28125,-0.34375 C 3.5,-9.15625 2.78125,-8.625 1.3125,-8.625 v 0.421875 c 0.328125,0 1.046875,0 1.828125,-0.375 v 7.46875 c 0,0.515625 -0.046875,0.6875 -1.296875,0.6875 H 1.390625 V 0 c 0.390625,-0.03125 1.78125,-0.03125 2.25,-0.03125 0.46875,0 1.859375,0 2.234375,0.03125 V -0.421875 H 5.4375 c -1.265625,0 -1.3125,-0.171875 -1.3125,-0.6875 z m 0,0"
   id="path24" />
    </g>
  </g>
</g><g
       inkscape:label=""
       transform="translate(68.998782,71.318833)"
       id="g30"><g
   fill="#000000"
   fill-opacity="1"
   id="g29"
   transform="matrix(0.352778,0,0,0.352778,-0.951133,-0.601751)">
    <g
   id="g28"
   transform="translate(1.993,11.237)">
      <path
   d="M 6.3125,-2.40625 H 6 c -0.046875,0.234375 -0.15625,1.03125 -0.3125,1.265625 -0.09375,0.125 -0.90625,0.125 -1.34375,0.125 H 1.6875 c 0.390625,-0.328125 1.265625,-1.25 1.640625,-1.59375 2.1875,-2.015625 2.984375,-2.75 2.984375,-4.171875 0,-1.65625 -1.3125,-2.75 -2.96875,-2.75 -1.671875,0 -2.640625,1.40625 -2.640625,2.640625 0,0.734375 0.625,0.734375 0.671875,0.734375 0.296875,0 0.671875,-0.21875 0.671875,-0.671875 C 2.046875,-7.234375 1.78125,-7.5 1.375,-7.5 1.25,-7.5 1.21875,-7.5 1.171875,-7.484375 1.453125,-8.46875 2.21875,-9.125 3.15625,-9.125 4.375,-9.125 5.125,-8.109375 5.125,-6.78125 5.125,-5.5625 4.421875,-4.5 3.59375,-3.578125 L 0.703125,-0.34375 V 0 H 5.9375 Z m 0,0"
   id="path27" />
    </g>
  </g>
</g><g
       inkscape:label=""
       transform="translate(68.960197,185.61298)"
       id="g33"><g
   fill="#000000"
   fill-opacity="1"
   id="g32"
   transform="matrix(0.352778,0,0,0.352778,-0.912548,-0.601751)">
    <g
   id="g31"
   transform="translate(1.993,11.237)">
      <path
   d="m 6.421875,-4.59375 c 0,-1.1875 -0.0625,-2.34375 -0.578125,-3.4375 -0.59375,-1.1875 -1.625,-1.5 -2.328125,-1.5 -0.828125,0 -1.859375,0.40625 -2.375,1.59375 -0.40625,0.90625 -0.546875,1.796875 -0.546875,3.34375 0,1.390625 0.09375,2.4375 0.609375,3.453125 0.5625,1.09375 1.546875,1.4375 2.296875,1.4375 1.25,0 1.96875,-0.734375 2.375,-1.578125 0.515625,-1.078125 0.546875,-2.484375 0.546875,-3.3125 z M 3.5,0.015625 C 3.046875,0.015625 2.109375,-0.25 1.84375,-1.8125 1.671875,-2.671875 1.671875,-3.765625 1.671875,-4.765625 1.671875,-5.9375 1.671875,-7 1.90625,-7.84375 2.15625,-8.8125 2.890625,-9.25 3.5,-9.25 c 0.546875,0 1.375,0.328125 1.65625,1.5625 0.171875,0.8125 0.171875,1.953125 0.171875,2.921875 0,0.96875 0,2.046875 -0.15625,2.921875 C 4.90625,-0.265625 4,0.015625 3.5,0.015625 Z m 0,0"
   id="path30" />
    </g>
  </g>
</g><g
       inkscape:label=""
       transform="translate(102.22151,185.59093)"
       id="g37"><g
   fill="#000000"
   fill-opacity="1"
   id="g4"
   transform="matrix(0.352778,0,0,0.352778,-0.868451,-0.706217)">
    <g
   id="use3"
   transform="translate(1.993,11.955)">
      <path
   d="m 2.46875,-9.953125 -2,0.15625 V -9.375 c 0.984375,0 1.09375,0.09375 1.09375,0.796875 V -1.0625 c 0,0.640625 -0.15625,0.640625 -1.09375,0.640625 V 0 c 0.40625,-0.03125 1.109375,-0.03125 1.546875,-0.03125 0.421875,0 1.140625,0 1.546875,0.03125 v -0.421875 c -0.921875,0 -1.09375,0 -1.09375,-0.640625 z m 0,0"
   id="path33" />
    </g>
    <g
   id="g34"
   transform="translate(5.8951659,11.955)">
      <path
   d="m 6.390625,-3.484375 c 0,-1.328125 0,-1.734375 -0.34375,-2.203125 -0.40625,-0.546875 -1.078125,-0.640625 -1.578125,-0.640625 -1.390625,0 -1.9375,1.1875 -2.046875,1.484375 H 2.40625 v -1.484375 l -1.953125,0.15625 V -5.75 c 0.984375,0 1.09375,0.09375 1.09375,0.796875 V -1.0625 c 0,0.640625 -0.15625,0.640625 -1.09375,0.640625 V 0 c 0.375,-0.03125 1.15625,-0.03125 1.5625,-0.03125 0.40625,0 1.1875,0 1.5625,0.03125 v -0.421875 c -0.921875,0 -1.09375,0 -1.09375,-0.640625 v -2.671875 c 0,-1.5 0.984375,-2.296875 1.875,-2.296875 0.890625,0 1.09375,0.71875 1.09375,1.59375 v 3.375 c 0,0.640625 -0.15625,0.640625 -1.09375,0.640625 V 0 c 0.375,-0.03125 1.15625,-0.03125 1.546875,-0.03125 0.421875,0 1.1875,0 1.5625,0.03125 v -0.421875 c -0.71875,0 -1.078125,0 -1.078125,-0.421875 z m 0,0"
   id="path34" />
    </g>
  </g>
  <g
   fill="#000000"
   fill-opacity="1"
   id="g36"
   transform="matrix(0.352778,0,0,0.352778,-0.868451,-0.706217)">
    <g
   id="g35"
   transform="translate(16.095316,11.955)">
      <path
   d="M 6.3125,-2.40625 H 6 c -0.046875,0.234375 -0.15625,1.03125 -0.3125,1.265625 -0.09375,0.125 -0.90625,0.125 -1.34375,0.125 H 1.6875 c 0.390625,-0.328125 1.265625,-1.25 1.640625,-1.59375 2.1875,-2.015625 2.984375,-2.75 2.984375,-4.171875 0,-1.65625 -1.3125,-2.75 -2.96875,-2.75 -1.671875,0 -2.640625,1.40625 -2.640625,2.640625 0,0.734375 0.625,0.734375 0.671875,0.734375 0.296875,0 0.671875,-0.21875 0.671875,-0.671875 C 2.046875,-7.234375 1.78125,-7.5 1.375,-7.5 1.25,-7.5 1.21875,-7.5 1.171875,-7.484375 1.453125,-8.46875 2.21875,-9.125 3.15625,-9.125 4.375,-9.125 5.125,-8.109375 5.125,-6.78125 5.125,-5.5625 4.421875,-4.5 3.59375,-3.578125 L 0.703125,-0.34375 V 0 H 5.9375 Z m 0,0"
   id="path35" />
    </g>
  </g>
</g></g></svg>
