<?xml version="1.0" encoding="UTF-8" standalone="no"?>
<!-- Created with Inkscape (http://www.inkscape.org/) -->

<svg
   width="210mm"
   height="297mm"
   viewBox="0 0 210 297"
   version="1.1"
   id="svg1"
   xml:space="preserve"
   inkscape:version="1.3.2 (091e20e, 2023-11-25)"
   sodipodi:docname="Zeichnung.svg"
   xmlns:inkscape="http://www.inkscape.org/namespaces/inkscape"
   xmlns:sodipodi="http://sodipodi.sourceforge.net/DTD/sodipodi-0.dtd"
   xmlns="http://www.w3.org/2000/svg"
   xmlns:svg="http://www.w3.org/2000/svg"><sodipodi:namedview
     id="namedview1"
     pagecolor="#ffffff"
     bordercolor="#000000"
     borderopacity="0.25"
     inkscape:showpageshadow="2"
     inkscape:pageopacity="0.0"
     inkscape:pagecheckerboard="0"
     inkscape:deskcolor="#d1d1d1"
     inkscape:document-units="mm"
     showguides="true"
     inkscape:zoom="0.92179448"
     inkscape:cx="282.60096"
     inkscape:cy="564.11707"
     inkscape:window-width="1512"
     inkscape:window-height="945"
     inkscape:window-x="0"
     inkscape:window-y="37"
     inkscape:window-maximized="0"
     inkscape:current-layer="layer1"><sodipodi:guide
       position="73.594093,122.1786"
       orientation="1,0"
       id="guide3"
       inkscape:locked="false" /></sodipodi:namedview><defs
     id="defs1"><linearGradient
       id="swatch3"
       inkscape:swatch="solid"><stop
         style="stop-color:#000000;stop-opacity:1;"
         offset="0"
         id="stop3" /></linearGradient></defs><g
     inkscape:label="Ebene 1"
     inkscape:groupmode="layer"
     id="layer1"><path
       style="fill:#000000"
       d="m 73.250045,201.82646 c 0,-10.87361 0.03083,-12.26381 0.279893,-12.61939 0.194124,-0.27715 0.225154,-0.46555 0.101263,-0.61483 -0.09825,-0.11838 -0.235442,-1.18654 -0.30488,-2.37368 l -0.126252,-2.15844 h -12.8514 c -8.450008,0 -12.8514,-0.0604 -12.8514,-0.17638 0,-0.11599 4.409722,-0.17639 12.876388,-0.17639 H 73.250045 V 157.5136 c 0,-14.40657 -0.04526,-26.19376 -0.100571,-26.19376 -0.05531,0 -1.226501,1.05172 -2.602637,2.33716 -2.52637,2.35985 -6.153388,5.51939 -8.58568,7.47907 -3.483091,2.80631 -10.533033,7.78508 -13.80243,9.74747 l -0.661458,0.39702 v -0.45755 c 0,-0.36476 0.205678,-0.58814 1.014236,-1.1015 8.12365,-5.15786 14.690504,-10.27345 22.160762,-17.26325 l 2.577778,-2.41199 V 103.43097 76.815674 H 71.521434 58.380463 47.497269 v -0.440972 -0.440973 h 10.643214 10.643214 c 1.007169,-0.0029 1.490276,-0.0074 3.231626,-5e-6 h 1.234722 V 65.791368 c 0,-10.010869 0.0046,-10.142362 0.351333,-10.142362 0.34623,0 0.351995,0.146676 0.396875,10.098264 l 0.04554,10.098265 18.300346,0.04492 18.300351,0.04492 V 65.792188 c 0,-10.02559 0.004,-10.143182 0.35278,-10.143182 0.34829,0 0.35277,0.117592 0.35277,9.260417 0,5.09323 0.0595,9.25826 0.13229,9.255623 0.22845,-0.0083 4.41939,-9.001947 7.10766,-15.252845 1.21994,-2.836677 1.41319,-3.180828 1.81358,-3.229688 0.43818,-0.05347 0.4155,0.02099 -1.02091,3.351389 -2.05455,4.763583 -3.63385,8.242819 -5.8076,12.794252 -1.02973,2.156065 -1.87224,3.961847 -1.87224,4.012847 0,0.051 5.23875,0.09273 11.64167,0.09273 11.52407,0 11.64166,0.0036 11.64166,0.352778 0,0.399092 1.12722,0.373537 -15.56632,0.352905 l -8.06979,-0.01 v 53.538956 53.53896 h 11.81806 c 7.76111,0 11.81805,0.0606 11.81805,0.17639 0,0.11583 -4.05694,0.17638 -11.81805,0.17638 h -11.81806 v 14.99306 c 0,14.87547 -0.003,14.99306 -0.35277,14.99306 -0.35002,0 -0.35278,-0.11759 -0.35278,-14.99306 V 184.06012 H 92.300044 73.955601 v 14.99306 c 0,14.87547 -0.0028,14.99306 -0.352778,14.99306 -0.349383,0 -0.352778,-0.11759 -0.352778,-12.21978 z m 37.388835,-70.90349 c -0.005,-47.140373 -0.0341,-52.746658 -0.27227,-52.431602 -0.14666,0.194028 -0.9372,1.644118 -1.75676,3.222423 C 99.317252,99.609476 87.696574,116.23894 76.231977,128.0473 l -2.276376,2.34464 v 26.6577 26.65771 h 18.344443 18.344446 z m -33.730322,-4.7625 c 4.682767,-5.06224 8.417636,-9.53841 12.326077,-14.77257 2.017886,-2.70234 5.523598,-7.71568 5.673864,-8.11389 0.05491,-0.14552 0.154917,-0.30427 0.222232,-0.35278 0.193305,-0.13929 2.638795,-3.906805 4.293522,-6.614583 3.277927,-5.363968 6.164707,-10.489411 9.611797,-17.065626 l 1.2713,-2.425347 H 92.132343 73.957335 l 3.5e-5,26.105556 c 2e-5,14.35806 0.06747,26.10556 0.149883,26.10556 0.08242,0 1.343004,-1.28985 2.801305,-2.86632 z M 69.817189,75.93373 C 0,0 0,0 69.817189,75.93373 Z m -4.082155,135.90419 c -0.375795,-0.57353 -0.247517,-1.98793 0.21068,-2.32297 0.422805,-0.30916 0.66437,-0.29153 1.125878,0.0822 0.297654,0.24102 0.387018,0.5021 0.387018,1.13065 0,1.1048 -0.264289,1.55457 -0.913482,1.55457 -0.359921,0 -0.608109,-0.13616 -0.810094,-0.44443 z m 1.234334,-0.18736 c 0.362534,-0.94475 -0.06663,-2.18819 -0.674706,-1.95485 -0.351795,0.13499 -0.54322,1.27808 -0.302505,1.80639 0.219622,0.48202 0.814531,0.5724 0.977211,0.14846 z m 1.1654,0.36721 c 0,-0.14553 0.07938,-0.26459 0.176388,-0.26459 0.09701,0 0.176389,0.11906 0.176389,0.26459 0,0.14552 -0.07937,0.26458 -0.176389,0.26458 -0.09701,0 -0.176388,-0.11906 -0.176388,-0.26458 z m 1.058333,-0.0882 c -0.150692,-0.28157 -0.134142,-0.35278 0.08199,-0.35278 0.148934,0 0.27079,0.0847 0.27079,0.18811 0,0.10346 0.218281,0.16299 0.485069,0.13229 0.40897,-0.0471 0.485069,-0.13883 0.485069,-0.58498 0,-0.50079 -0.03547,-0.52708 -0.661458,-0.49034 -0.577996,0.0339 -0.661154,-0.0106 -0.65905,-0.35278 0.0058,-0.95004 0.182462,-1.18535 0.889699,-1.18535 0.890968,0 1.065952,0.3156 0.214016,0.386 -0.521891,0.0431 -0.676651,0.13556 -0.718544,0.42916 -0.04355,0.30525 0.02145,0.36022 0.352778,0.29838 0.852682,-0.15916 1.421643,0.92825 0.847593,1.61994 -0.33073,0.39851 -1.358117,0.3418 -1.58795,-0.0876 z m -6.173611,-0.88194 c 0,-0.0995 0.499769,-0.17639 1.146528,-0.17639 0.646759,0 1.146527,0.0769 1.146527,0.17639 0,0.0995 -0.499768,0.17639 -1.146527,0.17639 -0.646759,0 -1.146528,-0.0769 -1.146528,-0.17639 z M 47.673658,189.08721 c 0,-0.14552 0.07937,-0.26458 0.176388,-0.26458 0.09701,0 0.176389,0.11906 0.176389,0.26458 0,0.14552 -0.07937,0.26458 -0.176389,0.26458 -0.09701,0 -0.176388,-0.11906 -0.176388,-0.26458 z m 1.058333,-0.0882 c -0.150692,-0.28157 -0.134142,-0.35277 0.08199,-0.35277 0.148934,0 0.27079,0.0846 0.27079,0.1881 0,0.10346 0.218281,0.16299 0.485069,0.13229 0.40897,-0.0471 0.485069,-0.13883 0.485069,-0.58498 0,-0.50079 -0.03547,-0.52708 -0.661458,-0.49034 -0.577996,0.0339 -0.661154,-0.0106 -0.65905,-0.35278 0.0058,-0.95004 0.182462,-1.18535 0.889699,-1.18535 0.890968,0 1.065952,0.31561 0.214017,0.38601 -0.521892,0.0431 -0.676652,0.13556 -0.718545,0.42915 -0.04356,0.30525 0.02145,0.36023 0.352778,0.29838 0.852682,-0.15916 1.421643,0.92826 0.847593,1.61995 -0.33073,0.3985 -1.358116,0.34179 -1.58795,-0.0877 z m 49.32803,0.0303 c -0.3745,-0.41381 -0.384714,-1.75951 -0.01734,-2.28401 0.322647,-0.46065 0.730047,-0.49821 1.273667,-0.11744 0.32238,0.2258 0.392026,0.44292 0.392026,1.22212 0,1.04671 -0.28956,1.5019 -0.9554,1.5019 -0.220569,0 -0.5324,-0.14515 -0.692956,-0.32257 z m 1.083911,-0.24187 c 0.259858,-0.25986 0.276854,-1.27723 0.02907,-1.74021 -0.377634,-0.70562 -1.052127,-0.18933 -1.052127,0.80535 0,0.9297 0.537263,1.42065 1.023055,0.93486 z m 1.093608,0.29986 c 0,-0.14552 0.11907,-0.26458 0.26459,-0.26458 0.14552,0 0.26458,0.11906 0.26458,0.26458 0,0.14552 -0.11906,0.26458 -0.26458,0.26458 -0.14552,0 -0.26459,-0.11906 -0.26459,-0.26458 z m 1.23119,-0.004 c -0.27058,-0.32603 -0.0761,-0.58692 0.21814,-0.29266 0.33848,0.33847 0.98326,0.24996 1.111,-0.15252 0.17565,-0.55343 -0.21629,-0.89903 -0.87867,-0.77476 l -0.56255,0.10553 0.10191,-0.76358 c 0.10058,-0.7537 0.11161,-0.76429 0.85155,-0.81782 0.8685,-0.0628 1.03616,0.26877 0.17784,0.35174 -0.67209,0.065 -0.95347,0.67263 -0.31147,0.67263 0.69242,0 1.05967,0.32616 1.05967,0.94107 0,0.31673 -0.0952,0.67113 -0.21166,0.78755 -0.29933,0.29933 -1.29011,0.26291 -1.55576,-0.0572 z m 26.10909,-0.78949 c 0,-0.94074 -0.0392,-1.05833 -0.35278,-1.05833 -0.19403,0 -0.35278,-0.0794 -0.35278,-0.17639 0,-0.097 0.093,-0.17639 0.2066,-0.17639 0.11363,0 0.35175,-0.13137 0.52917,-0.29192 0.31014,-0.28068 0.32257,-0.2331 0.32257,1.23472 0,0.90017 -0.0724,1.52664 -0.17639,1.52664 -0.098,0 -0.17639,-0.47037 -0.17639,-1.05833 z M 65.587131,158.2681 c -0.591532,-0.84453 -0.174195,-2.60659 0.617361,-2.60659 0.596602,0 1.048331,0.62914 1.048331,1.46006 0,0.9102 -0.396212,1.53855 -0.970139,1.53855 -0.235059,0 -0.542231,-0.17312 -0.695553,-0.39202 z m 1.125707,-0.2123 c 0.114821,-0.13835 0.184071,-0.58668 0.153889,-0.99627 -0.107749,-1.46227 -1.201404,-1.2912 -1.201404,0.18792 0,0.93492 0.574522,1.37827 1.047515,0.80835 z m 1.069152,0.33974 c 0,-0.14552 0.119062,-0.26458 0.264583,-0.26458 0.145521,0 0.264583,0.11906 0.264583,0.26458 0,0.14552 -0.119062,0.26458 -0.264583,0.26458 -0.145521,0 -0.264583,-0.11906 -0.264583,-0.26458 z m 1.231184,-0.004 c -0.285423,-0.34392 -0.08761,-0.55556 0.25415,-0.27192 0.360253,0.29899 1.056268,0.165 1.129165,-0.21736 0.09753,-0.5116 -0.322977,-0.87317 -0.884828,-0.7608 -0.451101,0.0902 -0.494949,0.0538 -0.494949,-0.41134 0,-0.88218 0.156977,-1.06835 0.900816,-1.06835 0.828791,0 0.920465,0.30783 0.114864,0.3857 -0.720695,0.0697 -0.942529,0.67264 -0.247463,0.67264 0.871869,0 1.327328,1.05425 0.718489,1.66309 -0.353327,0.35333 -1.199996,0.35806 -1.490244,0.008 z m 0.709093,-27.6006 c 0,-0.94074 -0.0392,-1.05834 -0.352777,-1.05834 -0.194028,0 -0.352778,-0.0794 -0.352778,-0.17639 0,-0.097 0.109343,-0.17638 0.242985,-0.17638 0.133642,0 0.341799,-0.11907 0.46257,-0.26459 0.420941,-0.5072 0.529167,-0.25467 0.529167,1.23472 0,1.21513 -0.05015,1.49931 -0.264583,1.49931 -0.205787,0 -0.264584,-0.23518 -0.264584,-1.05833 z M 66.19449,103.62679 c 0,-0.94074 -0.0392,-1.05834 -0.352778,-1.05834 -0.194028,0 -0.352778,-0.0794 -0.352778,-0.17639 0,-0.097 0.109344,-0.17638 0.242986,-0.17638 0.133642,0 0.341798,-0.11907 0.46257,-0.26459 0.420941,-0.5072 0.529166,-0.25467 0.529166,1.23472 0,1.21513 -0.05015,1.49931 -0.264583,1.49931 -0.205787,0 -0.264583,-0.23519 -0.264583,-1.05833 z m 1.5875,0.79375 c 0,-0.14552 0.119062,-0.26459 0.264583,-0.26459 0.145521,0 0.264583,0.11907 0.264583,0.26459 0,0.14552 -0.119062,0.26458 -0.264583,0.26458 -0.145521,0 -0.264583,-0.11906 -0.264583,-0.26458 z m 1.231184,-0.004 c -0.270576,-0.32602 -0.07611,-0.58691 0.218144,-0.29265 0.338475,0.33847 0.983256,0.24996 1.110997,-0.15252 0.175653,-0.55343 -0.21629,-0.89903 -0.878671,-0.77477 l -0.562545,0.10554 0.101904,-0.76358 c 0.100584,-0.7537 0.111612,-0.76429 0.851556,-0.81783 0.868497,-0.0628 1.036154,0.26878 0.177833,0.35175 -0.672083,0.065 -0.953464,0.67263 -0.311462,0.67263 0.692412,0 1.059671,0.32616 1.059671,0.94107 0,0.31673 -0.09525,0.67113 -0.211667,0.78754 -0.299332,0.29934 -1.290103,0.26292 -1.55576,-0.0572 z"
       id="path1"
       sodipodi:nodetypes="sssscssscssssscscscccsscccccscssscccsssssssssssscccssscssscccssssssscccccssssssscccssssssssssssssssssssssssssssssssssssssssssssscssssscsssssccssssssssssssssssssssscssssscsssssssssssssssssssssssscssssscssccssssssssssssssssssssscssscsccssscc" /><path
       style="fill:#000000;stroke-width:0.264583"
       d="m 73.594094,184.17418 c 0,1.79498 0,3.58995 0,5.38493 0,0.46954 0.102465,1.30663 -0.09447,1.70051 -0.02066,0.0413 0.04724,0.58556 0.04724,0.70854"
       id="path2" /><rect
       style="fill:#000000;fill-opacity:1;stroke:#000000;stroke-width:0.264583;stroke-opacity:0.988701"
       id="rect3"
       width="0.33065382"
       height="11.667356"
       x="73.405151"
       y="181.95407" /><path
       style="fill:#4eca4e;fill-opacity:0.37005651;stroke:#000000;stroke-width:1.14705;stroke-opacity:0.988701"
       d="m 280.60447,481.65696 c -0.39877,-1.99386 -0.72504,-45.62861 -0.72504,-96.96613 V 291.3499 h 67.67576 c 37.22167,0 67.67577,0.16252 67.67577,0.36117 0,0.8532 -17.12771,32.51437 -25.55605,47.24127 -28.88185,50.46543 -56.61698,89.30556 -92.55698,129.61629 -6.1872,6.93964 -12.27072,13.53912 -13.51894,14.66552 -2.20906,1.99346 -2.28879,1.95147 -2.99452,-1.57719 z"
       id="path3"
       transform="scale(0.26458333)" /></g></svg>
